<svg width="150" height="30" viewBox="0 0 150 30" fill="none" xmlns="http://www.w3.org/2000/svg">
<g id="logo-white 1" clip-path="url(#clip0_77_160)">
<path id="Vector" d="M58.3991 10.2786C58.9201 6.52579 56.799 3.86914 51.4687 3.86914H41.8592L39.1895 22.8127H44.2616L45.0824 16.9984H48.2133L51.2727 22.8127H57.1426L53.5413 16.178C56.3379 15.0657 57.9979 13.1375 58.3991 10.2786ZM53.2324 10.6969C53.0203 12.193 51.7845 13.0847 49.9217 13.0847H45.6495L46.3412 8.22182H50.5488C52.1719 8.22182 53.4906 8.85611 53.2324 10.6969Z" fill="white"/>
<path id="Vector_2" d="M74.3913 3.86914L68.1756 16.2745L65.4574 3.86914H59.7559L64.7773 22.8127H69.5566L79.9569 3.86914H74.3913Z" fill="white"/>
<path id="Vector_3" d="M79.3223 22.8127H84.429L87.1011 3.86914H81.9921L79.3223 22.8127Z" fill="white"/>
<path id="Vector_4" d="M10.8452 7.40592C12.6896 7.40592 14.3242 8.00114 15.9173 9.10425L18.9491 5.74896C17.1531 4.32181 14.4234 3.31982 11.4262 3.31982C5.95286 3.31982 3.02485 6.04542 2.57296 9.23524C2.14875 12.2228 3.40295 13.8154 8.78174 15.1713C11.9242 15.9642 12.8164 16.3847 12.655 17.4695C12.5121 18.4209 11.4561 19.1471 9.1829 19.1471C6.76671 19.1471 5.11135 18.5335 3.22773 17.0282L0 20.1468C2.14183 22.0681 5.0099 23.2355 8.64571 23.2355C15.7928 23.2355 17.7825 19.2299 18.0499 17.35C18.601 13.4684 16.6044 12.3699 11.5023 11.145C7.89642 10.2786 7.60823 9.82127 7.73964 8.94108C7.89872 7.87704 8.91546 7.40592 10.8452 7.40592Z" fill="white"/>
<path id="Vector_5" d="M140.097 18.1958C139.606 20.2715 138.425 22.1209 136.747 23.4441C135.069 24.7673 132.992 25.4866 130.852 25.4855C128.053 25.4855 126.047 24.0836 124.858 21.8981L121.743 16.178C124.51 15.068 126.195 13.1537 126.601 10.2718C127.129 6.52125 125.001 3.8623 119.684 3.8623H110.07L107.4 22.8059H112.473L113.293 16.9916H116.424L119.518 22.8748C122.391 28.3329 126.225 29.9991 130.852 29.9991C137.78 29.9991 143.874 25.3752 145.056 18.1889L140.097 18.1958ZM121.423 10.697C121.21 12.1931 119.975 13.0847 118.112 13.0847H113.851L114.543 8.22188H118.753C120.374 8.22188 121.692 8.85617 121.434 10.697H121.423Z" fill="white"/>
<path id="Vector_6" d="M20.2598 22.8127H35.4785L36.0664 18.6669H25.6962L26.1988 15.1185H35.4808L36.0065 11.4254H26.7245L27.2109 8.01499H37.4451L38.0354 3.86914H22.9503L20.2598 22.8127Z" fill="white"/>
<path id="Vector_7" d="M88.585 22.8127H103.804L104.394 18.6669H94.0214L94.5263 15.1185H103.808L104.334 11.4254H95.052L95.5361 8.01499H105.773L106.361 3.86914H91.2778L88.585 22.8127Z" fill="white"/>
<path id="Vector_8" d="M142.581 -0.000976562L144.077 3.41176L147.423 1.7548L146.369 5.32842L150 6.20401L146.888 8.26314L149.106 11.2622L145.391 10.8462L145.159 14.5623L142.581 11.8643L140.006 14.5623L139.77 10.8462L136.059 11.2622L138.277 8.26314L135.164 6.20401L138.795 5.32842L137.742 1.7548L141.087 3.41176L142.581 -0.000976562Z" fill="#EA5C47"/>
</g>
<defs>
<clipPath id="clip0_77_160">
<rect width="150" height="30" fill="white" transform="translate(0 -0.000976562)"/>
</clipPath>
</defs>
</svg>
