<svg width="225.500000" height="41.000000" viewBox="0 0 225.5 41" fill="none" xmlns="http://www.w3.org/2000/svg" xmlns:xlink="http://www.w3.org/1999/xlink">
	<desc>
			Created with Pixso.
	</desc>
	<defs/>
	<path id="Vector 58" d="M9 7.5L9 39.5L7.5 39.5L7.5 38L225.5 38L225.5 41L6 41L6 7.5L9 7.5ZM15 7.5Q15 7.68411 14.991 7.86801Q14.9819 8.0519 14.9639 8.23513Q14.9458 8.41836 14.9188 8.60048Q14.8918 8.7826 14.8559 8.96318Q14.82 9.14375 14.7752 9.32235Q14.7305 9.50095 14.6771 9.67713Q14.6236 9.85332 14.5616 10.0267Q14.4996 10.2 14.4291 10.3701Q14.3586 10.5402 14.2799 10.7067Q14.2012 10.8731 14.1144 11.0355Q14.0276 11.1978 13.933 11.3558Q13.8383 11.5137 13.736 11.6668Q13.6337 11.8199 13.5241 11.9677Q13.4144 12.1156 13.2976 12.2579Q13.1808 12.4003 13.0571 12.5367Q12.9335 12.6731 12.8033 12.8033Q12.6731 12.9335 12.5367 13.0571Q12.4003 13.1808 12.2579 13.2976Q12.1156 13.4144 11.9677 13.5241Q11.8199 13.6337 11.6668 13.736Q11.5137 13.8383 11.3558 13.933Q11.1978 14.0276 11.0355 14.1144Q10.8731 14.2012 10.7067 14.2799Q10.5402 14.3586 10.3701 14.4291Q10.2 14.4996 10.0267 14.5616Q9.85332 14.6236 9.67713 14.6771Q9.50095 14.7305 9.32235 14.7752Q9.14375 14.82 8.96318 14.8559Q8.7826 14.8918 8.60048 14.9188Q8.41836 14.9458 8.23513 14.9639Q8.0519 14.9819 7.86801 14.991Q7.68411 15 7.5 15Q7.31589 15 7.13199 14.991Q6.9481 14.9819 6.76487 14.9639Q6.58164 14.9458 6.39952 14.9188Q6.2174 14.8918 6.03682 14.8559Q5.85625 14.82 5.67765 14.7752Q5.49905 14.7305 5.32286 14.6771Q5.14668 14.6236 4.97333 14.5616Q4.79997 14.4996 4.62987 14.4291Q4.45977 14.3586 4.29334 14.2799Q4.1269 14.2012 3.96452 14.1144Q3.80215 14.0276 3.64423 13.933Q3.48631 13.8383 3.33322 13.736Q3.18014 13.6337 3.03225 13.5241Q2.88437 13.4144 2.74205 13.2976Q2.59973 13.1808 2.46331 13.0571Q2.32689 12.9335 2.1967 12.8033Q2.06651 12.6731 1.94287 12.5367Q1.81922 12.4003 1.70242 12.2579Q1.58562 12.1156 1.47594 11.9677Q1.36627 11.8199 1.26398 11.6668Q1.16169 11.5137 1.06704 11.3558Q0.972381 11.1978 0.88559 11.0355Q0.798799 10.8731 0.72008 10.7067Q0.641361 10.5402 0.570903 10.3701Q0.500446 10.2 0.438419 10.0267Q0.376393 9.85332 0.322947 9.67713Q0.269502 9.50095 0.224766 9.32235Q0.180029 9.14375 0.14411 8.96318Q0.108191 8.7826 0.0811762 8.60048Q0.0541609 8.41836 0.0361145 8.23513Q0.0180682 8.0519 0.00903408 7.86801Q0 7.68411 0 7.5Q0 7.31589 0.00903408 7.13199Q0.0180682 6.9481 0.0361145 6.76487Q0.0541609 6.58164 0.0811762 6.39952Q0.108191 6.2174 0.14411 6.03682Q0.180029 5.85625 0.224766 5.67765Q0.269502 5.49905 0.322947 5.32286Q0.376393 5.14668 0.438419 4.97333Q0.500446 4.79997 0.570903 4.62987Q0.641361 4.45977 0.72008 4.29334Q0.798799 4.1269 0.88559 3.96452Q0.972381 3.80215 1.06704 3.64423Q1.16169 3.48631 1.26398 3.33322Q1.36627 3.18014 1.47594 3.03225Q1.58562 2.88437 1.70242 2.74205Q1.81922 2.59973 1.94287 2.46331Q2.06651 2.32689 2.1967 2.1967Q2.32689 2.06651 2.46331 1.94287Q2.59973 1.81922 2.74205 1.70242Q2.88437 1.58562 3.03225 1.47594Q3.18014 1.36627 3.33322 1.26398Q3.48631 1.16169 3.64423 1.06704Q3.80215 0.972381 3.96452 0.88559Q4.1269 0.798799 4.29334 0.72008Q4.45977 0.641361 4.62987 0.570903Q4.79997 0.500446 4.97333 0.438419Q5.14668 0.376393 5.32287 0.322947Q5.49905 0.269502 5.67765 0.224766Q5.85625 0.180029 6.03682 0.14411Q6.2174 0.108191 6.39952 0.0811762Q6.58164 0.0541609 6.76487 0.0361145Q6.9481 0.0180682 7.13199 0.00903408Q7.31589 0 7.5 0Q7.68411 0 7.86801 0.00903408Q8.0519 0.0180682 8.23513 0.0361145Q8.41836 0.0541609 8.60048 0.0811762Q8.7826 0.108191 8.96318 0.14411Q9.14375 0.180029 9.32235 0.224766Q9.50095 0.269502 9.67713 0.322947Q9.85332 0.376393 10.0267 0.438419Q10.2 0.500446 10.3701 0.570903Q10.5402 0.641361 10.7067 0.72008Q10.8731 0.798799 11.0355 0.88559Q11.1978 0.972381 11.3558 1.06704Q11.5137 1.16169 11.6668 1.26398Q11.8199 1.36627 11.9677 1.47594Q12.1156 1.58562 12.2579 1.70242Q12.4003 1.81922 12.5367 1.94287Q12.6731 2.06651 12.8033 2.1967Q12.9335 2.32689 13.0571 2.46331Q13.1808 2.59973 13.2976 2.74205Q13.4144 2.88437 13.5241 3.03225Q13.6337 3.18014 13.736 3.33322Q13.8383 3.48631 13.933 3.64423Q14.0276 3.80215 14.1144 3.96452Q14.2012 4.1269 14.2799 4.29334Q14.3586 4.45977 14.4291 4.62987Q14.4996 4.79997 14.5616 4.97333Q14.6236 5.14668 14.6771 5.32287Q14.7305 5.49905 14.7752 5.67765Q14.82 5.85625 14.8559 6.03682Q14.8918 6.2174 14.9188 6.39952Q14.9458 6.58164 14.9639 6.76487Q14.9819 6.9481 14.991 7.13199Q15 7.31589 15 7.5Z" fill="#91E0CB" fill-opacity="1.000000" fill-rule="evenodd"/>
</svg>
